<svg width="375" height="246" viewBox="0 0 375 246" fill="none" xmlns="http://www.w3.org/2000/svg">
<path fill-rule="evenodd" clip-rule="evenodd" d="M1.05345e-05 40C1.30883e-05 17.9086 17.9086 0 40 0H53.5C73.4331 0 89.9608 14.5803 93 33.6577V131H94V33.6578C97.0392 14.5803 113.567 0 133.5 0H147C169.091 0 187 17.9086 187 40V205C187 227.091 169.091 245 147 245H40C17.9086 245 0 227.091 0 205L1.05345e-05 40ZM188 40C188 17.9086 205.909 0 228 0H335C357.091 0 375 17.9086 375 40V41.6667C375 61.5997 360.42 78.1274 341.342 81.1666H275V82.1666H341.342C360.42 85.2058 375 101.734 375 121.667V123.333C375 142.992 360.819 159.338 342.128 162.7H275V163.7H342.49C361.001 167.206 375 183.468 375 203V205C375 227.091 357.091 245 335 245H228C205.909 245 188 227.091 188 205V163.333V81.6667V40Z" fill="white"/>
</svg>
