<svg width="375" height="737" viewBox="0 0 375 737" fill="none" xmlns="http://www.w3.org/2000/svg">
<path fill-rule="evenodd" clip-rule="evenodd" d="M1.05345e-05 40C1.30883e-05 17.9086 17.9086 0 40 0H53.5C73.4331 0 89.9608 14.5803 93 33.6577L93 131H94L94 33.6578C97.0392 14.5803 113.567 0 133.5 0H147C169.091 0 187 17.9086 187 40L187 205C187 227.091 169.091 245 147 245H40C17.9086 245 0 227.091 0 205L1.05345e-05 40ZM188 40C188 17.9086 205.909 0 228 0H335C357.091 0 375 17.9086 375 40V41.6667C375 61.5997 360.42 78.1274 341.342 81.1666L275 81.1666V82.1666L341.342 82.1666C360.42 85.2058 375 101.734 375 121.667V123.333C375 142.992 360.819 159.338 342.128 162.7L275 162.7V163.7L342.49 163.7C361.001 167.206 375 183.468 375 203V205C375 227.091 357.091 245 335 245H228C205.909 245 188 227.091 188 205V163.333L188 81.6667V40ZM0 368V286C0 263.909 17.9086 246 40 246L335 246C357.091 246 375 263.909 375 286V328C375 347.933 360.42 364.461 341.343 367.5H275V368.5H341.342C360.42 371.539 375 388.067 375 408V451C375 473.091 357.091 491 335 491H227C207.977 491 192.056 477.721 188 459.928V368H187V451.024L187 451.043C186.977 473.115 169.077 491 147 491H40C17.9086 491 0 473.091 0 451V368ZM313.5 307.5V339H314.5V307.5H346V306.5H314.5V275H313.5V306.5H282V307.5H313.5ZM0 532C0 509.909 17.9086 492 40 492H53.5C75.5914 492 93.5 509.909 93.5 532C93.5 509.909 111.409 492 133.5 492H147C169.091 492 187 509.909 187 532V697C187 719.091 169.091 737 147 737H133.5C111.409 737 93.5 719.091 93.5 697C93.5 719.091 75.5914 737 53.5 737H40C17.9086 737 0 719.091 0 697V532ZM129.064 650.024L58.3536 579.313L57.6464 580.02L128.357 650.731L129.064 650.024ZM188 532C188 509.909 205.909 492 228 492H335C357.091 492 375 509.909 375 532V574.5C375 594.833 359.829 611.622 340.189 614.167H315V615.167H342.31C360.911 618.602 375 634.905 375 654.5V697C375 719.091 357.091 737 335 737H228C205.909 737 188 719.091 188 697V654.5C188 634.906 202.089 618.602 220.689 615.167H248V614.167H222.811C203.171 611.622 188 594.833 188 574.5V532Z" fill="white"/>
</svg>
