<svg width="24" height="24" viewBox="0 0 24 24" fill="none" xmlns="http://www.w3.org/2000/svg">
<path fill-rule="evenodd" clip-rule="evenodd" d="M7.75 9C7.75 6.65279 9.65279 4.75 12 4.75H12.6094C14.6201 4.75 16.25 6.37994 16.25 8.39058V8.5658C16.25 9.91584 15.4454 11.136 14.2046 11.6678C12.4122 12.436 11.25 14.1984 11.25 16.1485V16.5H12.75V16.1485C12.75 14.7985 13.5546 13.5783 14.7954 13.0465C16.5878 12.2783 17.75 10.5159 17.75 8.5658V8.39058C17.75 5.55152 15.4485 3.25 12.6094 3.25H12C8.82436 3.25 6.25 5.82436 6.25 9V10H7.75V9ZM12 20C12.5523 20 13 19.5523 13 19C13 18.4477 12.5523 18 12 18C11.4477 18 11 18.4477 11 19C11 19.5523 11.4477 20 12 20Z" fill="white"/>
</svg>
