<svg width="22" height="16" viewBox="0 0 22 16" fill="none" xmlns="http://www.w3.org/2000/svg">
<path fill-rule="evenodd" clip-rule="evenodd" d="M11.0001 0.25C6.35021 0.25 2.37268 3.30085 0.320853 7.6819L0.171875 8L0.320853 8.31809C2.37268 12.6991 6.35021 15.75 11.0001 15.75C15.6499 15.75 19.6274 12.6991 21.6793 8.31809L21.8282 8L21.6793 7.6819C19.6274 3.30085 15.6499 0.25 11.0001 0.25ZM11.0001 14.25C7.16106 14.25 3.73039 11.7945 1.83322 8C3.73039 4.20551 7.16106 1.75 11.0001 1.75C14.8391 1.75 18.2697 4.20551 20.1669 8C18.2697 11.7945 14.8391 14.25 11.0001 14.25ZM7.75005 8C7.75005 6.20507 9.20513 4.75 11.0001 4.75C12.795 4.75 14.2501 6.20507 14.2501 8C14.2501 9.79493 12.795 11.25 11.0001 11.25C9.20513 11.25 7.75005 9.79493 7.75005 8ZM11.0001 3.25C8.3767 3.25 6.25005 5.37665 6.25005 8C6.25005 10.6234 8.3767 12.75 11.0001 12.75C13.6234 12.75 15.7501 10.6234 15.7501 8C15.7501 5.37665 13.6234 3.25 11.0001 3.25Z" fill="#69707C"/>
</svg>
