<svg width="327" height="130" viewBox="0 0 327 130" fill="none" xmlns="http://www.w3.org/2000/svg">
<path fill-rule="evenodd" clip-rule="evenodd" d="M142 2C142 3.333 142.667 4 144 4C145.333 4 146 4.667 146 6C146 7.111 146.667 8 147.5 8C148.325 8 149 8.45 149 9C149 9.55 148.325 10 147.5 10C146.417 10 146 11.111 146 14V18H150H154V12.5C154 7.667 153.758 7 152 7C150.381 7 150 6.333 150 3.5C150 0.0829999 149.905 0 146 0C142.667 0 142 0.333 142 2ZM163.206 7.25C163.476 13.903 163.685 14.526 165.75 14.82C167.723 15.1 168 14.699 168 11.57C168 9.063 168.447 8 169.5 8C170.433 8 171 7.056 171 5.5C171 3.944 170.433 3 169.5 3C168.675 3 168 2.325 168 1.5C168 0.56 167.051 0 165.456 0C162.938 0 162.915 0.073 163.206 7.25ZM296.29 5C296.002 6.1 295.144 7 294.383 7C293.623 7 293 7.675 293 8.5C293 9.325 292.325 10 291.5 10C290.675 10 290 9.325 290 8.5C290 7.417 288.889 7 286 7C283.111 7 282 7.417 282 8.5C282 9.325 281.325 10 280.5 10C279.667 10 279 10.889 279 12C279 13.619 278.333 14 275.5 14C273.056 14 272 14.452 272 15.5C272 16.325 271.283 17 270.406 17C269.53 17 268.577 17.9 268.29 19C268.002 20.1 267.144 21 266.383 21C265.623 21 265 21.623 265 22.383C265 23.144 264.1 24.002 263 24.29C261.9 24.577 261 25.53 261 26.406C261 27.561 260.036 28 257.5 28C255.056 28 254 28.452 254 29.5C254 30.51 252.99 31 250.906 31C248.654 31 247.671 31.544 247.29 33C246.857 34.656 245.926 35 241.883 35C238.209 35 237 35.371 237 36.5C237 37.325 236.325 38 235.5 38C234.675 38 234 37.325 234 36.5C234 35.367 232.778 35 229 35C224.667 35 224 34.733 224 33C224 31.381 223.333 31 220.5 31C218.056 31 217 30.548 217 29.5C217 28.567 216.056 28 214.5 28C212.31 28 212 28.433 212 31.5C212 33.425 211.55 35 211 35C210.45 35 210 33.425 210 31.5V28H202.5C196.5 28 195 28.3 195 29.5C195 30.738 193.167 31 184.5 31C174.667 31 174 31.127 174 33C174 34.333 173.333 35 172 35C170.188 35 170 35.667 170 42.094C170 48.346 170.237 49.249 172 49.71C173.756 50.169 174 51.074 174 57.117V64H177.5C181.291 64 182.237 65.443 179 66.29C177.468 66.69 177 67.654 177 70.406C177 73.333 177.371 74 179 74C180.758 74 181 74.667 181 79.5V85H185C188.333 85 189 84.667 189 83C189 81.9 189.398 81 189.883 81C190.369 81 191.002 81.9 191.29 83C191.69 84.532 192.654 85 195.406 85C198.847 85 199 84.851 199 81.5V78H206C212.333 78 213 77.81 213 76C213 74.381 213.667 74 216.5 74C219.333 74 220 73.619 220 72C220 70.889 219.333 70 218.5 70C217.675 70 217 69.325 217 68.5C217 67.367 218.222 67 222 67C225.778 67 227 66.633 227 65.5C227 64.667 227.889 64 229 64C230.619 64 231 63.333 231 60.5C231 58.056 231.452 57 232.5 57C233.333 57 234 56.111 234 55C234 53.667 234.667 53 236 53C237.111 53 238 52.333 238 51.5C238 50.675 238.675 50 239.5 50C240.333 50 241 49.111 241 48C241 46.667 241.667 46 243 46C244.619 46 245 45.333 245 42.5C245 38.709 246.443 37.763 247.29 41C247.603 42.197 248.654 43 249.906 43C251.333 43 252 42.363 252 41C252 39.381 252.667 39 255.5 39C258.833 39 259 38.833 259 35.5C259 31.709 260.443 30.763 261.29 34C261.603 35.197 262.654 36 263.906 36C265.333 36 266 35.363 266 34C266 32.889 266.667 32 267.5 32C268.325 32 269 31.325 269 30.5C269 29.667 269.889 29 271 29C272.333 29 273 28.333 273 27C273 25.381 273.667 25 276.5 25C278.944 25 280 24.548 280 23.5C280 22.675 280.675 22 281.5 22C282.333 22 283 21.111 283 20C283 18.667 283.667 18 285 18C286.111 18 287 17.333 287 16.5C287 15.254 288.944 15 298.5 15C308.056 15 310 15.254 310 16.5C310 17.538 311.043 18 313.383 18C315.926 18 316.897 18.497 317.29 20C317.577 21.1 318.53 22 319.406 22C320.283 22 321 22.675 321 23.5C321 24.5 322 25 324 25C326.833 25 327 24.778 327 21C327 18.8 326.55 17 326 17C325.45 17 325 16.325 325 15.5C325 14.675 324.325 14 323.5 14C322.667 14 322 13.111 322 12C322 10.381 321.333 10 318.5 10C316.056 10 315 9.548 315 8.5C315 7.567 314.056 7 312.5 7C310.944 7 310 7.567 310 8.5C310 9.325 309.55 10 309 10C308.45 10 308 9.325 308 8.5C308 7.667 307.111 7 306 7C304.667 7 304 6.333 304 5C304 3.371 303.333 3 300.406 3C297.654 3 296.69 3.468 296.29 5ZM181 10.5C181 13.333 180.619 14 179 14C177.889 14 177 14.667 177 15.5C177 16.325 176.325 17 175.5 17C174.567 17 174 17.944 174 19.5C174 21.75 174.4 22 178 22C181.333 22 182 21.667 182 20C182 18.889 182.667 18 183.5 18C184.325 18 185 17.325 185 16.5C185 15.667 185.889 15 187 15C188.667 15 189 14.333 189 11V7H185C181.095 7 181 7.083 181 10.5ZM301 9C301 9.55 301.45 10 302 10C302.55 10 303 9.55 303 9C303 8.45 302.55 8 302 8C301.45 8 301 8.45 301 9ZM128.667 10.667C128.3 11.033 128 12.833 128 14.667C128 17.333 128.4 18 130 18C131.333 18 132 18.667 132 20C132 21.111 132.667 22 133.5 22C134.325 22 135 22.675 135 23.5C135 24.433 135.944 25 137.5 25C139.75 25 140 24.6 140 21C140 17.667 139.667 17 138 17C136.889 17 136 16.333 136 15.5C136 14.675 135.325 14 134.5 14C133.667 14 133 13.111 133 12C133 10.049 130.159 9.175 128.667 10.667ZM273 19.5C273 20.325 273.45 21 274 21C274.55 21 275 20.325 275 19.5C275 18.675 274.55 18 274 18C273.45 18 273 18.675 273 19.5ZM114 30C114 31.333 114.667 32 116 32C117.333 32 118 32.667 118 34C118 35.822 118.667 36 125.5 36C132.833 36 133 35.944 133 33.5C133 31.31 132.567 31 129.5 31C127.056 31 126 30.548 126 29.5C126 28.333 124.667 28 120 28C114.667 28 114 28.222 114 30ZM213 39C213 41.333 213.444 42 215 42C216.733 42 217 42.667 217 47C217 50.778 217.367 52 218.5 52C219.652 52 220 53.278 220 57.5C220 61.722 220.348 63 221.5 63C222.333 63 223 62.111 223 61C223 59.889 223.667 59 224.5 59C225.633 59 226 57.778 226 54C226 49.667 226.267 49 228 49C229.111 49 230 48.333 230 47.5C230 46.667 229.111 46 228 46C226.889 46 226 45.333 226 44.5C226 43.675 225.325 43 224.5 43C223.667 43 223 42.111 223 41C223 39.667 222.333 39 221 39C219.889 39 219 38.333 219 37.5C219 36.5 218 36 216 36C213.333 36 213 36.333 213 39ZM248 37C248 37.55 248.675 38 249.5 38C250.325 38 251 37.55 251 37C251 36.45 250.325 36 249.5 36C248.675 36 248 36.45 248 37ZM178 45.5C178 51.333 178.205 52 180 52C181.758 52 182 52.667 182 57.5C182 61.722 182.348 63 183.5 63C184.633 63 185 64.222 185 68C185 72.333 185.267 73 187 73C188.333 73 189 73.667 189 75C189 76.556 189.667 77 192 77C194 77 195 76.5 195 75.5C195 74.667 194.111 74 193 74C191.267 74 191 73.333 191 69C191 65.222 190.633 64 189.5 64C188.348 64 188 62.722 188 58.5C188 53.667 187.758 53 186 53C184.267 53 184 52.333 184 48C184 44.222 183.633 43 182.5 43C181.667 43 181 42.111 181 41C181 39.889 180.333 39 179.5 39C178.321 39 178 40.389 178 45.5ZM192 47.5C192 51.333 192.296 52 194 52C195.81 52 196 52.667 196 59C196 64.556 196.31 66 197.5 66C198.548 66 199 67.056 199 69.5C199 71.944 199.452 73 200.5 73C201.325 73 202 72.325 202 71.5C202 70.367 203.222 70 207 70C210.908 70 212 69.652 212 68.406C212 67.53 212.9 66.577 214 66.29C215.1 66.002 216 65.422 216 65C216 64.578 215.1 63.998 214 63.71C212.468 63.31 212 62.346 212 59.594C212 56.667 212.371 56 214 56C215.111 56 216 55.333 216 54.5C216 53.667 215.111 53 214 53C212.889 53 212 52.333 212 51.5C212 50.675 211.325 50 210.5 50C209.452 50 209 48.944 209 46.5V43H200.5H192V47.5ZM128.667 45.667C128.3 46.033 128 47.833 128 49.667C128 52.81 128.2 53 131.5 53H135V58.094C135 62.346 135.33 63.274 137 63.71C138.656 64.143 139 65.074 139 69.117C139 72.791 139.371 74 140.5 74C141.69 74 142 75.444 142 81C142 87.333 142.19 88 144 88C145.111 88 146 88.667 146 89.5C146 90.333 145.111 91 144 91C142.381 91 142 91.667 142 94.5C142 96.425 141.55 98 141 98C140.45 98 140 97.1 140 96C140 94.242 139.333 94 134.5 94C130.278 94 129 93.652 129 92.5C129 91.667 128.111 91 127 91C125.333 91 125 91.667 125 95C125 97.889 125.417 99 126.5 99C127.325 99 128 99.675 128 100.5C128 101.7 129.5 102 135.5 102C141.5 102 143 101.7 143 100.5C143 99.452 144.056 99 146.5 99C149.333 99 150 98.619 150 97C150 95.667 150.667 95 152 95C153.619 95 154 94.333 154 91.5C154 89.056 154.452 88 155.5 88C156.325 88 157 87.325 157 86.5C157 85.348 158.278 85 162.5 85C167.333 85 168 84.758 168 83C168 81.889 168.667 81 169.5 81C170.325 81 171 80.325 171 79.5C171 78.667 171.889 78 173 78C174.467 78 175 77.333 175 75.5C175 73.667 174.467 73 173 73C171.889 73 171 72.333 171 71.5C171 70.3 169.5 70 163.5 70C157.5 70 156 70.3 156 71.5C156 72.611 154.833 73 151.5 73C147.167 73 147 72.889 147 70C147 68 147.5 67 148.5 67C149.583 67 150 65.889 150 63C150 60.111 149.583 59 148.5 59C147.675 59 147 58.55 147 58C147 57.45 148.35 57 150 57C152.762 57 153 57.278 153 60.5C153 63.917 153.095 64 157 64C160.333 64 161 63.667 161 62C161 60.381 161.667 60 164.5 60C167.917 60 168 59.905 168 56C168 52.667 167.667 52 166 52C164.889 52 164 51.333 164 50.5C164 49.3 162.5 49 156.5 49C150.5 49 149 49.3 149 50.5C149 51.611 147.833 52 144.5 52C140.024 52 140 51.981 140 48.5V45H134.667C131.733 45 129.033 45.3 128.667 45.667ZM118 50.383C118 51.144 117.1 52.002 116 52.29C114.544 52.671 114 53.654 114 55.906C114 57.99 113.51 59 112.5 59C111.667 59 111 59.889 111 61C111 62.619 110.333 63 107.5 63C105.187 63 104 63.469 104 64.383C104 65.144 103.1 66.002 102 66.29C100.544 66.671 100 67.654 100 69.906C100 72.698 99.698 73 96.906 73C94.654 73 93.671 73.544 93.29 75C92.897 76.503 91.926 77 89.383 77C86.183 77 86 77.19 86 80.5C86 83.833 85.833 84 82.5 84C79.167 84 79 84.167 79 87.5C79 89.425 78.55 91 78 91C77.45 91 77 90.1 77 89C77 87.178 76.333 87 69.5 87H62V90.5C62 92.944 61.548 94 60.5 94C59.675 94 59 93.325 59 92.5C59 91.417 57.889 91 55 91C52.111 91 51 91.417 51 92.5C51 93.325 50.325 94 49.5 94C48.667 94 48 94.889 48 96C48 97.619 47.333 98 44.5 98C42.187 98 41 98.469 41 99.383C41 100.144 40.1 101.002 39 101.29C37.9 101.577 37 102.53 37 103.406C37 104.283 36.325 105 35.5 105C34.675 105 34 105.675 34 106.5C34 107.548 32.944 108 30.5 108C27.667 108 27 108.381 27 110C27 111.901 26.333 112 13.5 112H0V116C0 118.2 0.45 120 1 120C1.55 120 2 120.675 2 121.5C2 122.728 3.722 123 11.5 123C19.278 123 21 122.728 21 121.5C21 120.367 22.222 120 26 120C30.333 120 31 119.733 31 118C31 116.381 31.667 116 34.5 116C36.944 116 38 115.548 38 114.5C38 113.667 38.889 113 40 113C41.333 113 42 112.333 42 111C42 109.889 42.667 109 43.5 109C44.548 109 45 107.944 45 105.5C45 103.056 45.452 102 46.5 102C47.333 102 48 102.889 48 104C48 105.333 48.667 106 50 106C51.333 106 52 105.333 52 104C52 102.667 52.667 102 54 102C55.111 102 56 101.333 56 100.5C56 99.367 57.222 99 61 99C65.333 99 66 98.733 66 97C66 95.065 66.667 95 86.383 95C105.926 95 106.788 95.083 107.29 97C107.734 98.699 108.654 99 113.406 99C118.333 99 119 98.762 119 97C119 95.889 119.667 95 120.5 95C121.333 95 122 94.111 122 93C122 91.381 121.333 91 118.5 91C116.056 91 115 90.548 115 89.5C115 88.452 116.056 88 118.5 88H122V80.5C122 74.5 121.7 73 120.5 73C119.675 73 119 72.325 119 71.5C119 70.567 118.056 70 116.5 70C114.944 70 114 70.567 114 71.5C114 72.325 113.55 73 113 73C112.45 73 112 71.65 112 70C112 67.238 112.278 67 115.5 67C118.833 67 119 66.833 119 63.5C119 61.056 119.452 60 120.5 60C121.325 60 122 59.325 122 58.5C122 57.667 122.889 57 124 57C125.667 57 126 56.333 126 53V49H122C119.261 49 118 49.436 118 50.383ZM157 54.5C157 55.325 157.675 56 158.5 56C159.325 56 160 55.325 160 54.5C160 53.675 159.325 53 158.5 53C157.675 53 157 53.675 157 54.5ZM115 75.5C115 76.325 115.675 77 116.5 77C117.325 77 118 76.325 118 75.5C118 74.675 117.325 74 116.5 74C115.675 74 115 74.675 115 75.5ZM164 75.5C164 76.325 164.675 77 165.5 77C166.325 77 167 76.325 167 75.5C167 74.675 166.325 74 165.5 74C164.675 74 164 74.675 164 75.5ZM154 79C154 79.55 154.45 80 155 80C155.55 80 156 79.55 156 79C156 78.45 155.55 78 155 78C154.45 78 154 78.45 154 79ZM94 84C94 86.333 94.444 87 96 87C97.333 87 98 87.667 98 89C98 90.1 98.398 91 98.883 91C99.369 91 100.002 90.1 100.29 89C100.577 87.9 101.53 87 102.406 87C103.283 87 104 86.325 104 85.5C104 84.675 104.675 84 105.5 84C106.325 84 107 83.325 107 82.5C107 81.321 105.611 81 100.5 81H94V84ZM112 82.5C112 83.325 112.45 84 113 84C113.55 84 114 83.325 114 82.5C114 81.675 113.55 81 113 81C112.45 81 112 81.675 112 82.5ZM198.19 94.75L198.5 98.5L203.75 98.802C207.527 99.02 209 99.511 209 100.552C209 101.349 209.9 102 211 102C212.667 102 213 101.333 213 98C213 94.095 212.917 94 209.5 94C207.056 94 206 93.548 206 92.5C206 91.413 204.882 91 201.94 91H197.879L198.19 94.75ZM149 108.5C149 110.944 148.548 112 147.5 112C146.675 112 146 112.623 146 113.383C146 114.144 145.061 115.012 143.913 115.312C140.272 116.265 141.934 119.452 146.258 119.81C149.47 120.077 150 119.829 150 118.06C150 116.667 150.647 116 152 116C153.111 116 154 115.333 154 114.5C154 113.675 154.675 113 155.5 113C156.433 113 157 112.056 157 110.5C157 108.944 156.433 108 155.5 108C154.675 108 154 107.325 154 106.5C154 105.567 153.056 105 151.5 105C149.31 105 149 105.433 149 108.5ZM191 108.594C191 111.346 191.468 112.31 193 112.71C194.1 112.998 195 113.856 195 114.617C195 115.377 195.9 116 197 116C198.111 116 199 115.333 199 114.5C199 113.667 199.889 113 201 113C202.467 113 203 112.333 203 110.5C203 108.667 202.467 108 201 108C199.889 108 199 107.333 199 106.5C199 105.417 197.889 105 195 105C191.075 105 191 105.068 191 108.594ZM163 114C163 115.467 163.667 116 165.5 116C167.333 116 168 115.467 168 114C168 112.533 167.333 112 165.5 112C163.667 112 163 112.533 163 114ZM177 115.594C177 118.346 177.468 119.31 179 119.71C180.656 120.143 181 121.074 181 125.117C181 129.333 181.273 130 183 130C184.111 130 185 129.333 185 128.5C185 127.667 185.889 127 187 127C188.467 127 189 126.333 189 124.5C189 122.667 188.467 122 187 122C185.267 122 185 121.333 185 117V112H181C177.075 112 177 112.068 177 115.594ZM163 120.5C163 121.325 162.325 122 161.5 122C160.567 122 160 122.944 160 124.5C160 126.75 160.4 127 164 127H168V123C168 119.4 167.75 119 165.5 119C163.944 119 163 119.567 163 120.5Z" fill="black"/>
</svg>
