<svg width="97" height="25" viewBox="0 0 97 25" fill="none" xmlns="http://www.w3.org/2000/svg">
<path fill-rule="evenodd" clip-rule="evenodd" d="M0 3.91407C0 1.75239 1.75239 0 3.91407 0H5.59593C7.26216 0 8.68521 1.04115 9.25 2.50838L9.25 12.4272H9.75L9.75 2.53464C10.3079 1.05359 11.7379 0 13.4141 0H15.0859C17.2476 0 19 1.75239 19 3.91407L19 21.0859C19 23.2476 17.2476 25 15.0859 25H9.51H9.5H3.91407C1.75239 25 0 23.2476 0 21.0859V3.91407ZM19.5 3.91407C19.5 1.75239 21.2524 0 23.4141 0H34.5859C36.7476 0 38.4999 1.75239 38.4999 3.91407V4.41926C38.4999 6.09533 37.4465 7.52534 35.9655 8.08325L31.6504 8.08325V8.58325L35.9653 8.58325C37.4464 9.1411 38.4999 10.5712 38.4999 12.2473V12.7525C38.4999 14.4288 37.4462 15.859 35.9649 16.4167H31.6504V16.9167H35.9831C37.4548 17.4793 38.4999 18.9046 38.4999 20.5741V21.0859C38.4999 23.2476 36.7476 25 34.5859 25H23.4141C21.2524 25 19.5 23.2476 19.5 21.0859V16.6666V16.66V8.33333V8.33325V3.91407ZM39 3.91V12.5V21.0859C39 23.2476 40.7524 25 42.9141 25H44.5959C46.2622 25 47.6852 23.9588 48.25 22.4916V14.5728H48.75V22.4654C49.3078 23.9464 50.7379 25 52.4141 25H54.0859C56.2476 25 58 23.2476 58 21.0859V16.4141C58 14.7379 56.9464 13.3079 55.4653 12.75H51.4326V12.25H55.4654C56.9464 11.6921 58 10.2621 58 8.58593V3.91407C58 1.75239 56.2476 0 54.0859 0H42.91C40.7506 0 39 1.75057 39 3.91ZM51.3896 6.49991V9.38116H51.8896V6.49991H54.7708V5.99991H51.8896V3.11865H51.3896V5.99991H48.5083V6.49991H51.3896ZM58.5 3.91407C58.5 1.75239 60.2524 0 62.4141 0H64.0959C66.1907 0 67.9011 1.64556 68.005 3.71452C68.1089 1.64556 69.8193 0 71.9141 0H73.5859C75.7476 0 77.5 1.75239 77.5 3.91407V21.0859C77.5 23.2476 75.7476 25 73.5859 25H71.9141C69.8193 25 68.1089 23.3544 68.005 21.2855C67.9011 23.3544 66.1907 25 64.0959 25H62.4141C60.2524 25 58.5 23.2476 58.5 21.0859V3.91407ZM71.6149 17.0665L63.9824 9.43406L63.6289 9.78762L71.2613 17.42L71.6149 17.0665ZM78 3.91407C78 1.75239 79.7524 0 81.9141 0H93.0859C95.2476 0 97 1.75239 97 3.91407V8.58593C97 10.2621 95.9464 11.6921 94.4653 12.25L90.4722 12.25V12.75L94.4653 12.75C95.9464 13.3079 97 14.7379 97 16.4141V21.0859C97 23.2476 95.2476 25 93.0859 25H81.9141C79.7524 25 78 23.2476 78 21.0859V16.4141C78 14.7379 79.0536 13.3079 80.5346 12.75L84.8301 12.75V12.25L80.5346 12.25C79.0536 11.6921 78 10.2621 78 8.58593V3.91407Z" fill="white"/>
</svg>
