<svg width="373" height="208" viewBox="0 0 373 208" fill="none" xmlns="http://www.w3.org/2000/svg">
<path fill-rule="evenodd" clip-rule="evenodd" d="M0 17.8043C0 7.97126 7.97125 0 17.8043 0H19.0435C27.4376 0 34.4749 5.80896 36.3548 13.6262L36.3548 56.5286H37.3548L37.3548 13.5427C39.2646 5.76763 46.2817 0 54.6458 0H55.8877C65.7207 0 73.692 7.97126 73.692 17.8043L73.692 190.196C73.692 200.029 65.7207 208 55.8877 208H36.8478H36.8415H17.8043C7.97124 208 -1.27709e-05 200.029 -1.21431e-05 190.196L0 17.8043ZM74.8261 17.8043C74.8261 7.97125 82.7973 0 92.6304 0H130.717C140.55 0 148.522 7.97125 148.522 17.8043V51.529C148.522 59.9127 142.727 66.9429 134.925 68.8333H117.364V69.8333H134.925C142.727 71.7237 148.522 78.754 148.522 87.1376V120.862C148.522 129.246 142.727 136.276 134.925 138.167H117.364V139.167H134.925C142.727 141.057 148.522 148.087 148.522 156.471V190.196C148.522 200.029 140.55 208 130.717 208H92.6303C82.7973 208 74.826 200.029 74.826 190.196V138.667L74.8261 69.3333L74.8261 17.8043ZM149.556 17.8043C149.556 7.97127 157.527 0 167.36 0H205.64C215.473 0 223.444 7.97125 223.444 17.8043L223.444 86.3508C223.444 94.7345 217.649 101.765 209.847 103.655H192.115V104.655H210.346C217.846 106.751 223.348 113.635 223.348 121.804V190.196C223.348 200.029 215.376 208 205.543 208H204.304C195.921 208 188.89 202.205 187 194.403V151.626H186V194.414C184.106 202.211 177.078 208 168.698 208H167.456C157.623 208 149.652 200.029 149.652 190.196V104.155H149.556L149.556 17.8043ZM193.916 52.5V66.2434H194.916V52.5H208.659V51.5H194.916V37.7565H193.916V51.5H180.172V52.5H193.916ZM224.478 17.8043C224.478 7.97126 232.45 0 242.283 0H243.524C253.287 0 261.214 7.85715 261.328 17.5927C261.441 7.85715 269.368 0 279.131 0H280.37C290.203 0 298.174 7.97126 298.174 17.8043V190.196C298.174 200.029 290.203 208 280.37 208H279.131C269.368 208 261.441 200.143 261.328 190.407C261.214 200.143 253.287 208 243.524 208H242.283C232.45 208 224.478 200.029 224.478 190.196V17.8043ZM279.135 121.161L244.417 86.4424L243.71 87.1495L278.428 121.868L279.135 121.161ZM299.305 17.8043C299.305 7.97125 307.276 0 317.109 0H355.196C365.029 0 373 7.97125 373 17.8043V86.1957C373 94.8291 366.855 102.027 358.701 103.655H341.946V104.655H359.998C367.498 106.751 373 113.635 373 121.804V190.196C373 200.029 365.029 208 355.196 208H317.109C307.276 208 299.304 200.029 299.304 190.196V121.804C299.304 113.635 304.806 106.751 312.307 104.655H330.373V103.655H313.604C305.449 102.027 299.305 94.8291 299.305 86.1957V17.8043Z" fill="white"/>
</svg>
