<svg width="375" height="741" viewBox="0 0 375 741" fill="none" xmlns="http://www.w3.org/2000/svg">
<path d="M-2.55381e-06 40C-1.14338e-06 17.9086 17.9086 0 40 0L53.5 0C75.5914 0 93.5 17.9086 93.5 40L93.5 246.333L40 246.333C17.9086 246.333 -1.45838e-05 228.425 -1.31734e-05 206.333L-2.55381e-06 40Z" fill="white"/>
<path d="M93.5 40C93.5 17.9086 111.409 0 133.5 0L147 0C169.091 0 187 17.9086 187 40L187 206.333C187 228.425 169.091 246.333 147 246.333H93.5L93.5 40Z" fill="white"/>
<path d="M94 -5.36254e-06L94 131" stroke="#593EFF"/>
<path d="M188 40C188 17.9086 205.909 0 228 0L335 0C357.091 0 375 17.9086 375 40L375 42.1111C375 64.2025 357.091 82.1111 335 82.1111L188 82.1111L188 40Z" fill="white"/>
<path d="M188 82.1111L335 82.1111C357.091 82.1111 375 100.02 375 122.111L375 124.222C375 146.314 357.091 164.222 335 164.222L188 164.222L188 82.1111Z" fill="white"/>
<path d="M375 82.1111L275 82.1111" stroke="#593EFF"/>
<path d="M188 164.222L335 164.222C357.091 164.222 375 182.131 375 204.222L375 206.333C375 228.425 357.091 246.333 335 246.333L228 246.333C205.909 246.333 188 228.425 188 206.333L188 164.222Z" fill="white"/>
<path d="M375 164.222L275 164.222" stroke="#593EFF"/>
<path d="M0 287.333C0 265.242 17.9086 247.333 40 247.333H335C357.091 247.333 375 265.242 375 287.333V330.5C375 352.591 357.091 370.5 335 370.5H0L0 287.333Z" fill="white"/>
<g clip-path="url(#clip0_38_3824)">
<path d="M278 308.917H342" stroke="#593EFF"/>
<path d="M310 276.917V340.917" stroke="#593EFF"/>
</g>
<path d="M0 370.5L187.5 370.5L187.5 453.667C187.5 475.758 169.591 493.667 147.5 493.667H40C17.9086 493.667 -6.72022e-06 475.758 -5.30979e-06 453.667L0 370.5Z" fill="white"/>
<path d="M187.5 370.5H335C357.091 370.5 375 388.409 375 410.5L375 453.667C375 475.758 357.091 493.667 335 493.667H227.5C205.409 493.667 187.5 475.758 187.5 453.667L187.5 370.5Z" fill="white"/>
<path d="M187 363V493" stroke="#593EFF"/>
<path d="M375 371L275 371" stroke="#593EFF"/>
<rect y="494.667" width="93.5" height="246.333" rx="40" fill="white"/>
<rect x="93.5" y="494.667" width="93.5" height="246.333" rx="40" fill="white"/>
<path d="M128.711 653.044L58 582.333" stroke="#593EFF"/>
<rect x="188" y="494.667" width="187" height="123.167" rx="40" fill="white"/>
<rect x="188" y="617.833" width="187" height="123.167" rx="40" fill="white"/>
<path d="M375 617.333L315 617.333" stroke="#593EFF"/>
<path d="M248 617.333L188 617.333" stroke="#593EFF"/>
<defs>
<clipPath id="clip0_38_3824">
<rect width="64" height="64" fill="white" transform="translate(278 276.917)"/>
</clipPath>
</defs>
</svg>
