<svg width="24" height="24" viewBox="0 0 24 24" fill="none" xmlns="http://www.w3.org/2000/svg">
<path fill-rule="evenodd" clip-rule="evenodd" d="M3.75 10.5C3.75 6.77208 6.77208 3.75 10.5 3.75C14.2279 3.75 17.25 6.77208 17.25 10.5C17.25 14.2279 14.2279 17.25 10.5 17.25C6.77208 17.25 3.75 14.2279 3.75 10.5ZM10.5 2.25C5.94365 2.25 2.25 5.94365 2.25 10.5C2.25 15.0563 5.94365 18.75 10.5 18.75C12.5081 18.75 14.3487 18.0325 15.7793 16.84L20.4697 21.5303L21.5303 20.4697L16.84 15.7793C18.0325 14.3487 18.75 12.5081 18.75 10.5C18.75 5.94365 15.0563 2.25 10.5 2.25Z" fill="#051125"/>
</svg>
