<svg width="24" height="24" viewBox="0 0 24 24" fill="none" xmlns="http://www.w3.org/2000/svg">
<path fill-rule="evenodd" clip-rule="evenodd" d="M3 2.25H2.25V3V8H3.75V3.75H8V2.25H3ZM21 2.25H21.75V3V8H20.25V3.75H16V2.25H21ZM2.25 21.75H3H8V20.25H3.75V16H2.25V21V21.75ZM21 21.75H21.75V21V16H20.25V20.25H16V21.75H21ZM9.75 8.25H8.25V9.75H9.75V8.25ZM8.25 6.75H6.75V8.25V9.75V11.25H8.25H9.75H11.25V9.75V8.25V6.75H9.75H8.25ZM8.25 14.25H9.75V15.75H8.25V14.25ZM6.75 12.75H8.25H9.75H11.25V14.25V15.75V17.25H9.75H8.25H6.75V15.75V14.25V12.75ZM15.75 8.25H14.25V9.75H15.75V8.25ZM14.25 6.75H12.75V8.25V9.75V11.25H14.25H15.75H17.25V9.75V8.25V6.75H15.75H14.25ZM14.25 12.75H12.75V14.25H14.25V15.75H12.75V17.25H14.25V15.75H15.75V17.25H17.25V15.75V14.25H15.75H14.25V12.75Z" fill="#051125"/>
</svg>
