<svg width="20" height="20" viewBox="0 0 20 20" fill="none" xmlns="http://www.w3.org/2000/svg">
<path fill-rule="evenodd" clip-rule="evenodd" d="M13.9049 5.58706C12.9046 4.63301 11.5696 4.11326 10.1883 4.13462C7.6608 4.13462 5.51416 5.83982 4.74878 8.13597L4.74871 8.13591V8.13601C4.34289 9.33923 4.34288 10.6421 4.74867 11.8453H4.75234C5.52128 14.1379 7.66436 15.8431 10.1919 15.8431C11.4966 15.8431 12.6166 15.5094 13.4847 14.92V14.9178C14.5064 14.2414 15.2042 13.177 15.4213 11.9737H10.1882V8.24292H19.3266C19.4405 8.89083 19.4939 9.55297 19.4939 10.2116C19.4939 13.1582 18.4408 15.6495 16.6086 17.3369L16.6104 17.3383C15.0049 18.8192 12.8013 19.6772 10.1883 19.6772C6.5252 19.6772 3.17532 17.6124 1.53063 14.3409L1.53054 14.341C0.156406 11.6034 0.156406 8.37808 1.53054 5.6405H1.53066L1.53061 5.64046C3.17529 2.36533 6.52518 0.30058 10.1883 0.30058C12.5948 0.2721 14.9195 1.17632 16.671 2.821L13.9049 5.58706Z" fill="#051125"/>
</svg>
