<svg width="42" height="42" viewBox="0 0 42 42" fill="none" xmlns="http://www.w3.org/2000/svg">
<path fill-rule="evenodd" clip-rule="evenodd" d="M0 8L0 21L0 34C0 38.4183 3.58172 42 8 42H13C16.4369 42 19.3677 39.8326 20.5 36.7901V26.2H21.5V36.7901C22.6323 39.8326 25.5631 42 29 42H34C38.4183 42 42 38.4183 42 34V29C42 25.5631 39.8326 22.6323 36.7901 21.5L23 21.5V20.5L36.7901 20.5C39.8326 19.3677 42 16.4369 42 13V8C42 3.58173 38.4183 3.30394e-06 34 3.30394e-06L8 0C3.58172 0 0 3.58172 0 8ZM28.9 16.9V11H23V10H28.9V4.1H29.9V10H35.8V11H29.9V16.9H28.9Z" fill="#051125"/>
</svg>
