<svg width="838" height="254" viewBox="0 0 838 254" fill="none" xmlns="http://www.w3.org/2000/svg">
<path d="M-2.55381e-06 40C-1.14338e-06 17.9086 17.9086 0 40 0L43.4 0C65.4914 0 83.4 17.9086 83.4 40L83.4 254H40C17.9086 254 -1.50733e-05 236.091 -1.36629e-05 214L-2.55381e-06 40Z" fill="white"/>
<path d="M83.3999 40C83.3999 17.9086 101.309 0 123.4 0L126.8 0C148.891 0 166.8 17.9086 166.8 40L166.8 214C166.8 236.091 148.891 254 126.8 254H83.3999L83.3999 40Z" fill="white"/>
<path d="M83 6.19888e-06L83 127" stroke="#051125"/>
<path d="M167.8 40C167.8 17.9086 185.708 0 207.8 0L294.6 0C316.691 0 334.6 17.9086 334.6 40L334.6 44.6667C334.6 66.7581 316.691 84.6667 294.6 84.6667L167.8 84.6667L167.8 40Z" fill="white"/>
<path d="M167.8 84.6667L294.6 84.6667C316.691 84.6667 334.6 102.575 334.6 124.667L334.6 129.333C334.6 151.425 316.691 169.333 294.6 169.333H167.8L167.8 84.6667Z" fill="white"/>
<path d="M334.6 84.6667L264.6 84.6667" stroke="#051125"/>
<path d="M167.8 169.333L294.6 169.333C316.691 169.333 334.6 187.242 334.6 209.333L334.6 214C334.6 236.091 316.691 254 294.6 254H207.8C185.708 254 167.8 236.091 167.8 214L167.8 169.333Z" fill="white"/>
<path d="M334.6 169.333L264.6 169.333" stroke="#051125"/>
<path d="M335.6 40C335.6 17.9086 353.509 0 375.6 0L462.4 0C484.491 0 502.4 17.9086 502.4 40V87C502.4 109.091 484.491 127 462.4 127H335.6V40Z" fill="white"/>
<g clip-path="url(#clip0_37_3512)">
<path d="M405.4 63.5L469.4 63.5" stroke="#051125"/>
<path d="M437.4 31.5V95.5" stroke="#051125"/>
</g>
<path d="M335.6 127L419 127L419 214C419 236.091 401.091 254 379 254H375.6C353.509 254 335.6 236.091 335.6 214L335.6 127Z" fill="white"/>
<path d="M419 127H462.4C484.491 127 502.4 144.909 502.4 167L502.4 214C502.4 236.091 484.491 254 462.4 254H459C436.909 254 419 236.091 419 214L419 127Z" fill="white"/>
<path d="M419 127V254" stroke="#051125"/>
<path d="M502 127H432" stroke="#051125"/>
<rect x="503.4" width="83.4" height="254" rx="40" fill="white"/>
<rect x="586.8" width="83.4" height="254" rx="40" fill="white"/>
<path d="M625.4 166L547.4 88" stroke="#051125"/>
<rect x="671.2" width="166.8" height="127" rx="40" fill="white"/>
<rect x="671.2" y="127" width="166.8" height="127" rx="40" fill="white"/>
<path d="M838 127L768 127" stroke="#051125"/>
<path d="M741 127L671 127" stroke="#051125"/>
<defs>
<clipPath id="clip0_37_3512">
<rect width="64" height="64" fill="white" transform="translate(405.4 31.5)"/>
</clipPath>
</defs>
</svg>
