<svg width="24" height="24" viewBox="0 0 24 24" fill="none" xmlns="http://www.w3.org/2000/svg">
<path fill-rule="evenodd" clip-rule="evenodd" d="M17.7853 16.3711C19.9375 13.5299 19.7179 9.46487 17.1265 6.87348C15.5078 5.25477 13.315 4.56111 11.2015 4.79382L11.0373 3.30283C13.5838 3.02245 16.2331 3.85868 18.1872 5.81282C21.3652 8.99079 21.5876 14.0051 18.8544 17.4401L20.1318 18.7175L14.9892 20.0032L16.2748 14.8606L17.7853 16.3711ZM6.21474 7.62895C4.0625 10.4701 4.28208 14.5351 6.87348 17.1265C8.49218 18.7452 10.6851 19.4389 12.7985 19.2062L12.9627 20.6972C10.4163 20.9776 7.76696 20.1413 5.81282 18.1872C2.63484 15.0092 2.41246 9.99487 5.14567 6.55989L3.86827 5.28249L9.01087 3.99684L7.72522 9.13943L6.21474 7.62895Z" fill="white"/>
</svg>
