<svg width="24" height="24" viewBox="0 0 24 24" fill="none" xmlns="http://www.w3.org/2000/svg">
<path fill-rule="evenodd" clip-rule="evenodd" d="M19.3484 16.2748C20.0806 15.019 20.5 13.5585 20.5 12C20.5 7.30558 16.6944 3.5 12 3.5C7.30558 3.5 3.5 7.30558 3.5 12C3.5 13.5584 3.91939 15.0189 4.65147 16.2747C6.74184 14.8397 9.27279 14 11.9999 14C14.727 14 17.258 14.8398 19.3484 16.2748ZM18.4815 17.4993C16.636 16.2378 14.4041 15.5 11.9999 15.5C9.5957 15.5 7.36385 16.2377 5.51834 17.4992C7.07748 19.3351 9.4027 20.5 12 20.5C14.5972 20.5 16.9224 19.3351 18.4815 17.4993ZM3.45708 17.2007C2.53263 15.6854 2 13.9049 2 12C2 6.47715 6.47715 2 12 2C17.5228 2 22 6.47715 22 12C22 13.905 21.4673 15.6855 20.5428 17.2009C20.2947 17.6076 20.0183 17.9952 19.7165 18.3609C19.6988 18.3824 19.6809 18.4038 19.663 18.4251C17.8286 20.6107 15.0766 22 12 22C8.92335 22 6.17122 20.6106 4.33684 18.425C4.03599 18.0666 3.75983 17.6867 3.51097 17.288C3.49287 17.259 3.4749 17.2299 3.45708 17.2007ZM12 12C13.3807 12 14.5 10.8807 14.5 9.5C14.5 8.11929 13.3807 7 12 7C10.6193 7 9.5 8.11929 9.5 9.5C9.5 10.8807 10.6193 12 12 12ZM12 13.5C14.2091 13.5 16 11.7091 16 9.5C16 7.29086 14.2091 5.5 12 5.5C9.79086 5.5 8 7.29086 8 9.5C8 11.7091 9.79086 13.5 12 13.5Z" fill="#051125"/>
</svg>
