<svg width="24" height="24" viewBox="0 0 24 24" fill="none" xmlns="http://www.w3.org/2000/svg">
<path fill-rule="evenodd" clip-rule="evenodd" d="M19.3484 16.2748C20.0806 15.019 20.5 13.5585 20.5 12C20.5 7.30558 16.6944 3.5 12 3.5C7.30558 3.5 3.5 7.30558 3.5 12C3.5 13.5584 3.91939 15.0189 4.65147 16.2747C6.74184 14.8397 9.27279 14 11.9999 14C14.727 14 17.258 14.8398 19.3484 16.2748ZM3.45708 17.2007C2.53263 15.6854 2 13.9049 2 12C2 6.47715 6.47715 2 12 2C17.5228 2 22 6.47715 22 12C22 13.905 21.4673 15.6856 20.5428 17.2009C18.787 20.0788 15.6179 22 12 22C8.54822 22 5.50492 20.2511 3.70784 17.5911C3.62134 17.463 3.53772 17.3329 3.45708 17.2007ZM16 9.5C16 11.7091 14.2091 13.5 12 13.5C9.79086 13.5 8 11.7091 8 9.5C8 7.29086 9.79086 5.5 12 5.5C14.2091 5.5 16 7.29086 16 9.5Z" fill="#051125"/>
</svg>
