<svg width="375" height="492" viewBox="0 0 375 492" fill="none" xmlns="http://www.w3.org/2000/svg">
<path fill-rule="evenodd" clip-rule="evenodd" d="M0 123V41C0 18.909 17.9086 1 40 1H335C357.091 1 375 18.909 375 41V83C375 102.933 360.42 119.461 341.343 122.5H275V123.5H341.342C360.42 126.539 375 143.067 375 163V206C375 228.091 357.091 246 335 246H227C207.977 246 192.056 232.721 188 214.928V123H187V206.024V206.043C186.977 228.115 169.077 246 147 246H40C17.9086 246 0 228.091 0 206V123ZM313.5 62.5V94H314.5V62.5H346V61.5H314.5V30H313.5V61.5H282V62.5H313.5ZM0 287C0 264.909 17.9086 247 40 247H53.5C75.5914 247 93.5 264.909 93.5 287C93.5 264.909 111.409 247 133.5 247H147C169.091 247 187 264.909 187 287V452C187 474.091 169.091 492 147 492H133.5C111.409 492 93.5 474.091 93.5 452C93.5 474.091 75.5914 492 53.5 492H40C17.9086 492 0 474.091 0 452V287ZM129.064 405.024L58.3536 334.313L57.6464 335.02L128.357 405.731L129.064 405.024ZM188 287C188 264.909 205.909 247 228 247H335C357.091 247 375 264.909 375 287V329.5C375 349.833 359.829 366.622 340.189 369.167H315V370.167H342.31C360.911 373.602 375 389.905 375 409.5V452C375 474.091 357.091 492 335 492H228C205.909 492 188 474.091 188 452V409.5C188 389.906 202.089 373.602 220.689 370.167H248V369.167H222.811C203.171 366.622 188 349.833 188 329.5V287Z" fill="white"/>
</svg>
