<svg width="24" height="24" viewBox="0 0 24 24" fill="none" xmlns="http://www.w3.org/2000/svg">
<path fill-rule="evenodd" clip-rule="evenodd" d="M13.8182 2H10.1818L9.58738 4.1797C9.0958 4.33118 8.62399 4.52774 8.17676 4.76454L6.2146 3.64331L3.6433 6.2146L4.76454 8.17677C4.52774 8.62399 4.33119 9.09579 4.17971 9.58735L2 10.1818V13.8182L4.17971 14.4126C4.33119 14.9042 4.52774 15.376 4.76454 15.8232L3.64328 17.7854L6.21458 20.3567L8.17678 19.2355C8.624 19.4723 9.09581 19.6688 9.58738 19.8203L10.1818 22H13.8182L14.4127 19.8203C14.9042 19.6688 15.376 19.4723 15.8232 19.2355L17.7854 20.3567L20.3567 17.7854L19.2355 15.8232C19.4723 15.376 19.6688 14.9042 19.8203 14.4126L22 13.8182V10.1818L19.8203 9.58735C19.6688 9.09579 19.4723 8.62399 19.2355 8.17678L20.3567 6.21459L17.7854 3.64329L15.8232 4.76454C15.376 4.52775 14.9042 4.3312 14.4127 4.17972L13.8182 2ZM12 16C14.2091 16 16 14.2091 16 12C16 9.79086 14.2091 8 12 8C9.79086 8 8 9.79086 8 12C8 14.2091 9.79086 16 12 16Z" fill="#051125"/>
</svg>
