<svg width="18" height="21" viewBox="0 0 18 21" fill="none" xmlns="http://www.w3.org/2000/svg">
<path d="M17.2828 16.4757C16.9659 17.1919 16.5907 17.8512 16.1561 18.4573C15.5636 19.2836 15.0785 19.8556 14.7046 20.1732C14.1251 20.6945 13.5041 20.9615 12.8392 20.9767C12.3619 20.9767 11.7862 20.8439 11.1161 20.5743C10.4438 20.3061 9.82597 20.1732 9.26105 20.1732C8.66857 20.1732 8.03314 20.3061 7.35347 20.5743C6.67277 20.8439 6.1244 20.9843 5.70514 20.9982C5.06751 21.0248 4.43195 20.7502 3.79756 20.1732C3.39266 19.8278 2.8862 19.2355 2.27949 18.3966C1.62854 17.5007 1.09337 16.4618 0.674107 15.2774C0.22509 13.9981 0 12.7593 0 11.5599C0 10.1861 0.303484 9.00117 0.911357 8.00822C1.38909 7.21064 2.02465 6.58148 2.8201 6.11962C3.61555 5.65775 4.47503 5.42238 5.40062 5.40733C5.90707 5.40733 6.57122 5.56057 7.39655 5.86173C8.21955 6.16391 8.748 6.31714 8.97968 6.31714C9.1529 6.31714 9.73995 6.13796 10.7351 5.78074C11.6762 5.44946 12.4705 5.31229 13.1212 5.36633C14.8844 5.50552 16.2091 6.18542 17.0901 7.41032C15.5131 8.34494 14.7331 9.65399 14.7486 11.3333C14.7628 12.6413 15.2479 13.7298 16.2013 14.5941C16.6334 14.9952 17.1159 15.3052 17.6528 15.5254C17.5364 15.8557 17.4135 16.172 17.2828 16.4757ZM13.2389 0.910117C13.2389 1.93535 12.856 2.89261 12.0928 3.77864C11.1717 4.83195 10.0577 5.44061 8.84955 5.34456C8.83415 5.22157 8.82523 5.09212 8.82523 4.95609C8.82523 3.97186 9.26325 2.91855 10.0411 2.05732C10.4294 1.62127 10.9234 1.25869 11.5223 0.969463C12.12 0.684547 12.6853 0.526982 13.2169 0.5C13.2325 0.637058 13.2389 0.774124 13.2389 0.910103V0.910117Z" fill="#051125"/>
</svg>
